<?xml version="1.0" encoding="utf-8"?>
<!-- Generator: Adobe Illustrator 19.1.0, SVG Export Plug-In . SVG Version: 6.00 Build 0)  -->
<svg version="1.1" id="Layer_1" xmlns="http://www.w3.org/2000/svg" xmlns:xlink="http://www.w3.org/1999/xlink" x="0px" y="0px"
	 viewBox="39 318.3 690.5 156.7" enable-background="new 39 318.3 690.5 156.7" xml:space="preserve">
<g>
	<g>
		<g>
			<path fill="#CB2330" stroke="#000000" stroke-width="0.25" stroke-miterlimit="10" d="M83.6,318.4c-11,0-20.2,7.4-22.6,17.9
				c-0.4,2-21.8,102.9-21.8,102.9H57h17.9l3.8-17.9H60.8c0,0,12-56.6,14.4-67.6c1.4-6.8,4-17.4,4-17.4s7.6,0,11.4,0
				c8.7,0,61.5,0,61.5,0l-3.8,17.9h17.9l3.8-17.9l3.8-17.9C173.8,318.4,83.6,318.4,83.6,318.4z"/>
			<path fill="#CB2330" stroke="#000000" stroke-width="0.25" stroke-miterlimit="10" d="M157.4,474.9c11,0,20.2-7.4,22.6-17.9
				c0.4-2,21.9-102.9,21.9-102.9H184h-17.9l-3.8,17.9h17.9c0,0-12,56.6-14.4,67.6c-1.3,6.1-4,17.3-4,17.3s-7,0.1-11.4,0.1
				c-8.7,0-61.5,0-61.5,0l3.8-17.9H74.9L71.1,457l-3.8,17.9H157.4z"/>
			<path fill="#283B8B" stroke="#000000" stroke-width="0.25" stroke-miterlimit="10" d="M148.2,354.2c0,0-23.4,0-38.7,0
				c-5,0-16.6,0-16.6,0L89,372.1h22.1h33.2l-3.3,15.7h-37.3H85.8l-7.1,33.5l-3.8,17.9h56.5l0,0c5,0,9.2,0,11.3,0c2,0,4.8,0,4.8,0
				l4.3-17.9h-22H96.6l3.3-15.7h37.4h17.9l7.1-33.6l3.8-17.9h-17.9V354.2z"/>
		</g>
	</g>
	<g>
		<path fill="#414042" stroke="#000000" stroke-width="0.25" stroke-miterlimit="10" d="M247.7,438.9h2.1l7.9,18.6h-2.6l-1.9-4.6
			h-9.3l-1.9,4.6h-2.5L247.7,438.9z M248.7,441.7L248.7,441.7l-3.9,9.2h7.6L248.7,441.7z"/>
		<path fill="#414042" stroke="#000000" stroke-width="0.25" stroke-miterlimit="10" d="M265.4,438.9h4.8c3.6,0,7.4,0.5,7.4,5.1
			c0,2.7-1.8,4.5-4.7,4.9l5.3,8.6h-2.7l-5.1-8.4h-2.8v8.4h-2.2V438.9z M267.7,447.1h2c2.4,0,5.6,0,5.6-3.1c0-2.7-2.3-3.1-4.5-3.1
			h-3.1V447.1z"/>
		<path fill="#414042" stroke="#000000" stroke-width="0.25" stroke-miterlimit="10" d="M286.8,438.9h3.3l6.3,14.6h0.1l6.4-14.6h3.2
			v18.6h-2.2v-15.6h-0.1l-6.7,15.6h-1.3l-6.7-15.6H289v15.6h-2.2V438.9z"/>
		<path fill="#414042" stroke="#000000" stroke-width="0.25" stroke-miterlimit="10" d="M316,438.9h11.7v2.1h-9.5v5.8h8.9v2.1h-8.9
			v6.6h10v2.1H316V438.9z"/>
		<path fill="#414042" stroke="#000000" stroke-width="0.25" stroke-miterlimit="10" d="M336.5,438.9h7.2c3.7,0,9.1,2.4,9.1,9.3
			s-5.5,9.3-9.1,9.3h-7.2V438.9z M338.7,455.5h4.2c4.3,0,7.5-2.2,7.5-7.3s-3.2-7.3-7.5-7.3h-4.2V455.5z"/>
		<path fill="#414042" stroke="#000000" stroke-width="0.25" stroke-miterlimit="10" d="M372.1,438.9h2.4l4.2,15.5h0.1l4.6-15.5h2.5
			l4.6,15.5h0.1l4.3-15.5h2.3l-5.5,18.6h-2.4l-4.6-15.8h-0.1l-4.6,15.8h-2.4L372.1,438.9z"/>
		<path fill="#414042" stroke="#000000" stroke-width="0.25" stroke-miterlimit="10" d="M404.8,438.9h2.2v18.6h-2.2V438.9z"/>
		<path fill="#414042" stroke="#000000" stroke-width="0.25" stroke-miterlimit="10" d="M429.5,440.9h-6.2v16.6h-2.2v-16.6h-6.2
			v-2.1h14.5v2.1H429.5z"/>
		<path fill="#414042" stroke="#000000" stroke-width="0.25" stroke-miterlimit="10" d="M437.3,438.9h2.2v7.9h10v-7.9h2.2v18.6h-2.2
			v-8.7h-10v8.7h-2.2V438.9z"/>
		<path fill="#414042" stroke="#000000" stroke-width="0.25" stroke-miterlimit="10" d="M474.2,438.9h2.2v18.6h-2.2V438.9z"/>
		<path fill="#414042" stroke="#000000" stroke-width="0.25" stroke-miterlimit="10" d="M486.3,438.9h2.8l10.8,15.5h0.1v-15.5h2.2
			v18.6h-2.8L488.6,442h-0.1v15.5h-2.2V438.9z"/>
		<path fill="#414042" stroke="#000000" stroke-width="0.25" stroke-miterlimit="10" d="M524.6,440.9h-6.2v16.6h-2.2v-16.6H510v-2.1
			h14.5L524.6,440.9L524.6,440.9z"/>
		<path fill="#414042" stroke="#000000" stroke-width="0.25" stroke-miterlimit="10" d="M532.5,438.9h11.7v2.1h-9.5v5.8h8.9v2.1
			h-8.9v6.6h10v2.1h-12.2V438.9z"/>
		<path fill="#414042" stroke="#000000" stroke-width="0.25" stroke-miterlimit="10" d="M553.4,438.9h2.2v16.6h8.5v2.1h-10.7V438.9z
			"/>
		<path fill="#414042" stroke="#000000" stroke-width="0.25" stroke-miterlimit="10" d="M571.8,438.9h2.2v16.6h8.5v2.1h-10.7V438.9z
			"/>
		<path fill="#414042" stroke="#000000" stroke-width="0.25" stroke-miterlimit="10" d="M590.2,438.9h2.2v18.6h-2.2V438.9z"/>
		<path fill="#414042" stroke="#000000" stroke-width="0.25" stroke-miterlimit="10" d="M618.2,456.2c-2.1,1.2-4.6,1.7-7,1.7
			c-5.8,0-10-4-10-9.8c0-5.9,4.5-9.8,10-9.8c2.4,0,4.8,0.7,6.6,2.4l-1.7,1.7c-1.3-1.4-3.2-2.1-5.1-2.1c-4.3,0-7.5,3.2-7.5,7.7
			s3.1,7.7,7.7,7.7c1.5,0,3.3-0.4,4.6-1.1v-5.7h-4.3v-2.1h6.5v9.4H618.2z"/>
		<path fill="#414042" stroke="#000000" stroke-width="0.25" stroke-miterlimit="10" d="M628.1,438.9h11.7v2.1h-9.5v5.8h8.9v2.1
			h-8.9v6.6h10v2.1h-12.2V438.9z"/>
		<path fill="#414042" stroke="#000000" stroke-width="0.25" stroke-miterlimit="10" d="M649,438.9h2.8l10.8,15.5h0.1v-15.5h2.2
			v18.6h-2.8L651.3,442h-0.1v15.5H649V438.9z"/>
		<path fill="#414042" stroke="#000000" stroke-width="0.25" stroke-miterlimit="10" d="M687.8,442.7c-1.1-1.5-2.9-2.3-4.7-2.3
			c-4.2,0-7.1,3.7-7.1,7.7c0,4.3,2.9,7.7,7.1,7.7c2.3,0,4.1-0.9,5.4-2.6l1.7,1.4c-1.7,2.2-4.1,3.3-7.1,3.3c-5.3,0-9.5-4.1-9.5-9.8
			c0-5.5,4-9.8,9.5-9.8c2.5,0,5,0.9,6.6,2.9L687.8,442.7z"/>
		<path fill="#414042" stroke="#000000" stroke-width="0.25" stroke-miterlimit="10" d="M698.6,438.9h11.7v2.1h-9.5v5.8h8.9v2.1
			h-8.9v6.6h10v2.1h-12.2V438.9z"/>
	</g>
	<g>
		<path fill="#283B8B" stroke="#000000" stroke-width="0.25" stroke-miterlimit="10" d="M240,355.7h39.2v9.8h-28.4v16h26.8v9.8
			h-26.8v25.2H240V355.7z"/>
		<path fill="#283B8B" stroke="#000000" stroke-width="0.25" stroke-miterlimit="10" d="M297.6,355.7h10.8v60.7h-10.8V355.7z"/>
		<path fill="#283B8B" stroke="#000000" stroke-width="0.25" stroke-miterlimit="10" d="M330.3,355.7h21.1
			c11.7,0,22.7,3.8,22.7,17.4c0,8.8-5.1,15.2-14.1,16.5l16.1,26.9h-13L349,390.7h-7.9v25.7h-10.8L330.3,355.7L330.3,355.7z
			 M349.5,381.5c6.1,0,13.2-0.5,13.2-8.4c0-7.2-6.7-8.1-12.3-8.1H341v16.5C341,381.5,349.5,381.5,349.5,381.5z"/>
		<path fill="#283B8B" stroke="#000000" stroke-width="0.25" stroke-miterlimit="10" d="M422.7,368.8c-2.3-3.3-6.4-4.8-10.6-4.8
			c-5,0-10,2.2-10,7.8c0,12.2,28.8,5.2,28.8,26.9c0,13-10.3,19.4-22.2,19.4c-7.6,0-14.9-2.3-19.9-8.2l8.2-7.9c2.7,4,7.2,6.3,12,6.3
			c5,0,10.6-2.7,10.6-8.3c0-13.3-28.8-5.7-28.8-27.4c0-12.5,11.2-18.4,22.4-18.4c6.3,0,12.7,1.8,17.4,6.3L422.7,368.8z"/>
		<path fill="#283B8B" stroke="#000000" stroke-width="0.25" stroke-miterlimit="10" d="M463.2,365.5h-18.6v-9.8h48v9.8H474v51
			h-10.8V365.5z"/>
		<path fill="#283B8B" stroke="#000000" stroke-width="0.25" stroke-miterlimit="10" d="M529.5,416.5h-6.2v-55.1H503v-5.7h46.8v5.7
			h-20.3V416.5z"/>
		<path fill="#283B8B" stroke="#000000" stroke-width="0.25" stroke-miterlimit="10" d="M581.1,407.7h0.2l15.3-52h7.4l15.3,52h0.2
			l14.4-52h6.9l-17.9,60.7h-7.2l-15.3-52H600l-15.3,52h-7.2l-17.9-60.7h6.9L581.1,407.7z"/>
		<path fill="#283B8B" stroke="#000000" stroke-width="0.25" stroke-miterlimit="10" d="M685,418c-18.1,0-31.7-13.5-31.7-31.9
			c0-18.4,13.6-31.9,31.7-31.9c18.1,0,31.7,13.5,31.7,31.9C716.6,404.5,703.1,418,685,418z M685,359.8c-15.6,0-25,12.3-25,26.3
			s9.4,26.3,25,26.3s25-12.3,25-26.3S700.6,359.8,685,359.8z"/>
	</g>
</g>
</svg>
